<svg width="46" height="46" viewBox="0 0 46 46" fill="none" xmlns="http://www.w3.org/2000/svg">
<rect width="46" height="46" rx="6" fill="url(#paint0_radial_203_101)"/>
<rect x="5.91425" y="30.2286" width="34.8286" height="8.54286" fill="#4F4A4A"/>
<path d="M36.486 11.8286C36.486 11.8286 10.728 22.3988 5.91425 22.3988V30.2286H40.7428V26.1621L36.486 11.8286Z" fill="url(#paint1_linear_203_101)"/>
<path d="M30.6812 9.85712C30.6812 9.85712 10.728 24.5698 5.91425 24.5698V30.2285H40.7428V26.31L30.6812 9.85712Z" fill="url(#paint2_radial_203_101)"/>
<path d="M24.4895 9.85712C24.4895 9.85712 10.728 26.2361 5.91425 26.2361V30.2285H40.7428V26.2361L24.4895 9.85712Z" fill="url(#paint3_radial_203_101)"/>
<path d="M12.4245 36.8657C12.017 36.8657 11.6709 36.7956 11.3862 36.6555C11.1058 36.5109 10.8911 36.3072 10.7422 36.0443C10.5932 35.7771 10.51 35.4573 10.4925 35.0849C10.4881 34.9053 10.4859 34.7125 10.4859 34.5066C10.4859 34.3007 10.4881 34.1035 10.4925 33.9152C10.51 33.5472 10.5932 33.2295 10.7422 32.9623C10.8955 32.6951 11.1124 32.4914 11.3928 32.3512C11.6775 32.2066 12.0214 32.1343 12.4245 32.1343C12.7224 32.1343 12.9896 32.1737 13.2262 32.2526C13.4628 32.3315 13.6643 32.441 13.8308 32.5812C13.9972 32.717 14.1265 32.8769 14.2185 33.0609C14.3105 33.2449 14.3587 33.4442 14.363 33.6589C14.3674 33.6983 14.3543 33.7312 14.3236 33.7575C14.2973 33.7837 14.2645 33.7969 14.225 33.7969H13.6008C13.5526 33.7969 13.5131 33.7859 13.4825 33.764C13.4518 33.7377 13.4299 33.6961 13.4168 33.6392C13.3467 33.35 13.2262 33.1529 13.0553 33.0477C12.8845 32.9426 12.672 32.89 12.4179 32.89C12.1244 32.89 11.89 32.9733 11.7148 33.1397C11.5395 33.3018 11.4453 33.5713 11.4322 33.948C11.419 34.3073 11.419 34.6753 11.4322 35.052C11.4453 35.4288 11.5395 35.7004 11.7148 35.8669C11.89 36.029 12.1244 36.11 12.4179 36.11C12.672 36.11 12.8845 36.0575 13.0553 35.9523C13.2306 35.8428 13.351 35.6456 13.4168 35.3609C13.4299 35.2995 13.4518 35.2579 13.4825 35.236C13.5131 35.2141 13.5526 35.2032 13.6008 35.2032H14.225C14.2645 35.2032 14.2973 35.2163 14.3236 35.2426C14.3543 35.2689 14.3674 35.3017 14.363 35.3412C14.3587 35.5558 14.3105 35.7552 14.2185 35.9392C14.1265 36.1232 13.9972 36.2853 13.8308 36.4255C13.6643 36.5613 13.4628 36.6686 13.2262 36.7475C12.9896 36.8263 12.7224 36.8657 12.4245 36.8657Z" fill="white"/>
<path d="M15.3001 36.8C15.2563 36.8 15.219 36.7869 15.1884 36.7606C15.1577 36.7299 15.1424 36.6905 15.1424 36.6423V32.3643C15.1424 32.3161 15.1577 32.2767 15.1884 32.246C15.219 32.2154 15.2563 32.2 15.3001 32.2H15.8981C15.9463 32.2 15.9835 32.2154 16.0098 32.246C16.0405 32.2767 16.0558 32.3161 16.0558 32.3643V34.0597H17.9944V32.3643C17.9944 32.3161 18.0097 32.2767 18.0404 32.246C18.071 32.2154 18.1083 32.2 18.1521 32.2H18.7435C18.7917 32.2 18.8311 32.2154 18.8618 32.246C18.8925 32.2767 18.9078 32.3161 18.9078 32.3643V36.6423C18.9078 36.6861 18.8925 36.7234 18.8618 36.754C18.8311 36.7847 18.7917 36.8 18.7435 36.8H18.1521C18.1083 36.8 18.071 36.7847 18.0404 36.754C18.0097 36.7234 17.9944 36.6861 17.9944 36.6423V34.8812H16.0558V36.6423C16.0558 36.6861 16.0405 36.7234 16.0098 36.754C15.9835 36.7847 15.9463 36.8 15.8981 36.8H15.3001Z" fill="white"/>
<path d="M19.6472 36.8C19.6121 36.8 19.5793 36.7869 19.5486 36.7606C19.5223 36.7343 19.5092 36.7015 19.5092 36.662C19.5092 36.6445 19.5136 36.6248 19.5223 36.6029L21.106 32.3643C21.1192 32.3205 21.1433 32.2833 21.1783 32.2526C21.2178 32.2175 21.2703 32.2 21.336 32.2H22.0523C22.118 32.2 22.1684 32.2175 22.2035 32.2526C22.2385 32.2833 22.2648 32.3205 22.2823 32.3643L23.866 36.6029C23.8704 36.6248 23.8726 36.6445 23.8726 36.662C23.8726 36.7015 23.8595 36.7343 23.8332 36.7606C23.8069 36.7869 23.7762 36.8 23.7412 36.8H23.1695C23.1081 36.8 23.0621 36.7869 23.0315 36.7606C23.0052 36.7299 22.9877 36.7015 22.9789 36.6752L22.67 35.8735H20.7183L20.4095 36.6752C20.4007 36.7015 20.381 36.7299 20.3503 36.7606C20.324 36.7869 20.2802 36.8 20.2189 36.8H19.6472ZM20.9483 35.1177H22.44L21.6909 33.0872L20.9483 35.1177Z" fill="white"/>
<path d="M24.6438 36.8C24.6 36.8 24.5628 36.7847 24.5321 36.754C24.5015 36.7234 24.4861 36.6861 24.4861 36.6423V32.3643C24.4861 32.3161 24.5015 32.2767 24.5321 32.246C24.5628 32.2154 24.6 32.2 24.6438 32.2H26.3458C26.8759 32.2 27.2943 32.3227 27.601 32.568C27.9076 32.8134 28.061 33.1704 28.061 33.6392C28.061 33.9634 27.9799 34.2328 27.8178 34.4475C27.6601 34.6621 27.4476 34.8176 27.1804 34.914L28.1398 36.5897C28.153 36.616 28.1596 36.6401 28.1596 36.662C28.1596 36.7015 28.1442 36.7343 28.1136 36.7606C28.0873 36.7869 28.0566 36.8 28.0216 36.8H27.4236C27.3491 36.8 27.2921 36.7803 27.2527 36.7409C27.2133 36.7015 27.1826 36.662 27.1607 36.6226L26.313 35.0652H25.3996V36.6423C25.3996 36.6861 25.3842 36.7234 25.3536 36.754C25.3273 36.7847 25.29 36.8 25.2418 36.8H24.6438ZM25.3996 34.3226H26.3261C26.5934 34.3226 26.7927 34.2635 26.9241 34.1452C27.0556 34.0225 27.1213 33.8516 27.1213 33.6326C27.1213 33.4135 27.0556 33.2427 26.9241 33.12C26.7971 32.993 26.5977 32.9295 26.3261 32.9295H25.3996V34.3226Z" fill="white"/>
<path d="M30.0261 36.8C29.9823 36.8 29.945 36.7847 29.9144 36.754C29.8837 36.7234 29.8684 36.6861 29.8684 36.6423V33.0083H28.6527C28.6089 33.0083 28.5716 32.993 28.541 32.9623C28.5103 32.9316 28.495 32.8944 28.495 32.8506V32.3643C28.495 32.3161 28.5103 32.2767 28.541 32.246C28.5716 32.2154 28.6089 32.2 28.6527 32.2H32.0041C32.0523 32.2 32.0917 32.2154 32.1224 32.246C32.153 32.2767 32.1684 32.3161 32.1684 32.3643V32.8506C32.1684 32.8944 32.153 32.9316 32.1224 32.9623C32.0917 32.993 32.0523 33.0083 32.0041 33.0083H30.795V36.6423C30.795 36.6861 30.7796 36.7234 30.749 36.754C30.7183 36.7847 30.6789 36.8 30.6307 36.8H30.0261Z" fill="white"/>
<path d="M34.4128 36.8657C34.0054 36.8657 33.6636 36.8066 33.3876 36.6883C33.116 36.5656 32.9079 36.4079 32.7634 36.2152C32.6232 36.018 32.5487 35.8121 32.5399 35.5975C32.5399 35.558 32.5531 35.5252 32.5794 35.4989C32.6056 35.4726 32.6385 35.4595 32.6779 35.4595H33.2628C33.3197 35.4595 33.3614 35.4726 33.3876 35.4989C33.4183 35.5208 33.4446 35.5493 33.4665 35.5843C33.4928 35.6675 33.5432 35.7508 33.6176 35.834C33.6921 35.9129 33.7929 35.9786 33.9199 36.0312C34.0514 36.0837 34.2156 36.11 34.4128 36.11C34.7282 36.11 34.9626 36.0575 35.1159 35.9523C35.2736 35.8472 35.3525 35.7048 35.3525 35.5252C35.3525 35.3981 35.3109 35.2974 35.2276 35.2229C35.1444 35.144 35.0152 35.0739 34.8399 35.0126C34.6691 34.9469 34.4413 34.879 34.1565 34.8089C33.8279 34.73 33.5519 34.6358 33.3285 34.5263C33.1094 34.4124 32.943 34.27 32.8291 34.0992C32.7195 33.9283 32.6648 33.7115 32.6648 33.4486C32.6648 33.1945 32.7327 32.9689 32.8685 32.7717C33.0087 32.5746 33.2058 32.4191 33.4599 32.3052C33.7184 32.1913 34.0251 32.1343 34.3799 32.1343C34.6647 32.1343 34.9166 32.1737 35.1356 32.2526C35.3547 32.3271 35.5365 32.4278 35.6811 32.5549C35.8256 32.6775 35.9352 32.8112 36.0096 32.9557C36.0885 33.0959 36.1301 33.2339 36.1345 33.3697C36.1345 33.4048 36.1214 33.4376 36.0951 33.4683C36.0732 33.4946 36.0403 33.5077 35.9965 33.5077H35.3854C35.3503 33.5077 35.3153 33.499 35.2802 33.4815C35.2452 33.4639 35.2167 33.4311 35.1948 33.3829C35.1685 33.2471 35.0831 33.131 34.9385 33.0346C34.7939 32.9382 34.6077 32.89 34.3799 32.89C34.1434 32.89 33.9528 32.9338 33.8082 33.0215C33.6636 33.1091 33.5914 33.2449 33.5914 33.4289C33.5914 33.5515 33.6264 33.6545 33.6965 33.7377C33.771 33.8166 33.8871 33.8867 34.0448 33.948C34.2069 34.0094 34.4194 34.0751 34.6822 34.1452C35.0546 34.2284 35.3591 34.3248 35.5956 34.4343C35.8322 34.5438 36.0053 34.684 36.1148 34.8549C36.2243 35.0214 36.2791 35.2338 36.2791 35.4923C36.2791 35.7815 36.2002 36.029 36.0425 36.2349C35.8892 36.4364 35.6723 36.5919 35.3919 36.7015C35.1115 36.811 34.7852 36.8657 34.4128 36.8657Z" fill="white"/>
<defs>
<radialGradient id="paint0_radial_203_101" cx="0" cy="0" r="1" gradientUnits="userSpaceOnUse" gradientTransform="translate(9.85714 10.8429) rotate(47.7263) scale(53.7302)">
<stop stop-color="#E0D8D8"/>
<stop offset="1" stop-color="#B3A1A1"/>
</radialGradient>
<linearGradient id="paint1_linear_203_101" x1="23" y1="34.5" x2="37.5" y2="12" gradientUnits="userSpaceOnUse">
<stop stop-color="#3C3333"/>
<stop offset="1" stop-color="#4F4A4A"/>
</linearGradient>
<radialGradient id="paint2_radial_203_101" cx="0" cy="0" r="1" gradientUnits="userSpaceOnUse" gradientTransform="translate(28 13.5) rotate(105.602) scale(17.3686 29.6946)">
<stop stop-color="#8D8383"/>
<stop offset="1" stop-color="#4F4A4A"/>
</radialGradient>
<radialGradient id="paint3_radial_203_101" cx="0" cy="0" r="1" gradientUnits="userSpaceOnUse" gradientTransform="translate(27 12.5) rotate(113.199) scale(19.0394 32.5513)">
<stop stop-color="#F6E6E1"/>
<stop offset="1" stop-color="#D9D9D9"/>
</radialGradient>
</defs>
</svg>
